<?xml version="1.0" encoding="UTF-8" standalone="no"?>
<!-- Created with Inkscape (http://www.inkscape.org/) -->

<svg
   xmlns:dc="http://purl.org/dc/elements/1.1/"
   xmlns:cc="http://creativecommons.org/ns#"
   xmlns:rdf="http://www.w3.org/1999/02/22-rdf-syntax-ns#"
   xmlns:svg="http://www.w3.org/2000/svg"
   xmlns="http://www.w3.org/2000/svg"
   xmlns:sodipodi="http://sodipodi.sourceforge.net/DTD/sodipodi-0.dtd"
   xmlns:inkscape="http://www.inkscape.org/namespaces/inkscape"
   width="210mm"
   height="297mm"
   viewBox="0 0 744.09448819 1052.3622047"
   id="svg2"
   version="1.1"
   inkscape:version="0.91 r13725"
   sodipodi:docname="block1.svg">
  <defs
     id="defs4" />
  <sodipodi:namedview
     id="base"
     pagecolor="#ffffff"
     bordercolor="#666666"
     borderopacity="1.0"
     inkscape:pageopacity="0.0"
     inkscape:pageshadow="2"
     inkscape:zoom="4.4023863"
     inkscape:cx="84.680124"
     inkscape:cy="928.93078"
     inkscape:document-units="px"
     inkscape:current-layer="layer1"
     showgrid="false"
     inkscape:window-width="1366"
     inkscape:window-height="744"
     inkscape:window-x="0"
     inkscape:window-y="24"
     inkscape:window-maximized="1" />
  <metadata
     id="metadata7">
    <rdf:RDF>
      <cc:Work
         rdf:about="">
        <dc:format>image/svg+xml</dc:format>
        <dc:type
           rdf:resource="http://purl.org/dc/dcmitype/StillImage" />
        <dc:title />
      </cc:Work>
    </rdf:RDF>
  </metadata>
  <g
     inkscape:label="Layer 1"
     inkscape:groupmode="layer"
     id="layer1">
    <text
       xml:space="preserve"
       style="font-style:normal;font-weight:normal;font-size:17.5px;line-height:125%;font-family:sans-serif;letter-spacing:0px;word-spacing:0px;fill:#000000;fill-opacity:1;stroke:none;stroke-width:1px;stroke-linecap:butt;stroke-linejoin:miter;stroke-opacity:1"
       x="162.34981"
       y="73.136574"
       id="text4136"
       sodipodi:linespacing="125%"><tspan
         sodipodi:role="line"
         id="tspan4138"
         x="162.34981"
         y="73.136574">Non-Contextual</tspan></text>
    <text
       xml:space="preserve"
       style="font-style:normal;font-weight:normal;font-size:17.5px;line-height:125%;font-family:sans-serif;letter-spacing:0px;word-spacing:0px;fill:#000000;fill-opacity:1;stroke:none;stroke-width:1px;stroke-linecap:butt;stroke-linejoin:miter;stroke-opacity:1"
       x="164.05875"
       y="144.34264"
       id="text4140"
       sodipodi:linespacing="125%"><tspan
         sodipodi:role="line"
         id="tspan4142"
         x="164.05875"
         y="144.34264">Contextual</tspan></text>
    <text
       xml:space="preserve"
       style="font-style:normal;font-weight:normal;font-size:17.5px;line-height:125%;font-family:sans-serif;letter-spacing:0px;word-spacing:0px;fill:#000000;fill-opacity:1;stroke:none;stroke-width:1px;stroke-linecap:butt;stroke-linejoin:miter;stroke-opacity:1"
       x="377.10724"
       y="38.388016"
       id="text4144"
       sodipodi:linespacing="125%"><tspan
         sodipodi:role="line"
         id="tspan4146"
         x="377.10724"
         y="38.388016">Non-multiplicative</tspan></text>
    <text
       xml:space="preserve"
       style="font-style:normal;font-weight:normal;font-size:17.5px;line-height:125%;font-family:sans-serif;letter-spacing:0px;word-spacing:0px;fill:#000000;fill-opacity:1;stroke:none;stroke-width:1px;stroke-linecap:butt;stroke-linejoin:miter;stroke-opacity:1"
       x="377.10724"
       y="109.02442"
       id="text4148"
       sodipodi:linespacing="125%"><tspan
         sodipodi:role="line"
         id="tspan4150"
         x="377.10724"
         y="109.02442">Multiplicative</tspan></text>
    <text
       xml:space="preserve"
       style="font-style:normal;font-weight:normal;font-size:17.5px;line-height:125%;font-family:sans-serif;letter-spacing:0px;word-spacing:0px;fill:#000000;fill-opacity:1;stroke:none;stroke-width:1px;stroke-linecap:butt;stroke-linejoin:miter;stroke-opacity:1"
       x="28.31352"
       y="87.814934"
       id="text4136-5"
       sodipodi:linespacing="125%"><tspan
         sodipodi:role="line"
         id="tspan4138-5"
         x="28.31352"
         y="87.814934">HV </tspan><tspan
         sodipodi:role="line"
         x="28.31352"
         y="109.68993"
         id="tspan4148">Model</tspan><tspan
         sodipodi:role="line"
         x="28.31352"
         y="131.56494"
         id="tspan4151">for QM</tspan></text>
    <path
       style="color:#000000;clip-rule:nonzero;display:inline;overflow:visible;visibility:visible;opacity:1;isolation:auto;mix-blend-mode:normal;color-interpolation:sRGB;color-interpolation-filters:linearRGB;solid-color:#000000;solid-opacity:1;fill:none;fill-opacity:1;fill-rule:evenodd;stroke:#000000;stroke-width:1px;stroke-linecap:butt;stroke-linejoin:miter;stroke-miterlimit:4;stroke-dasharray:none;stroke-dashoffset:0;stroke-opacity:1;color-rendering:auto;image-rendering:auto;shape-rendering:auto;text-rendering:auto;enable-background:accumulate;filter-blend-mode:normal;filter-gaussianBlur-deviation:0"
       d="m 86.58656,104.22237 68.35781,34.17891"
       id="path4174"
       inkscape:connector-curvature="0" />
    <path
       style="fill:none;fill-rule:evenodd;stroke:#000000;stroke-width:1px;stroke-linecap:butt;stroke-linejoin:miter;stroke-opacity:1"
       d="M 86.58656,103.32794 154.94437,69.149028"
       id="path4174-6"
       inkscape:connector-curvature="0" />
    <path
       style="color:#000000;clip-rule:nonzero;display:inline;overflow:visible;visibility:visible;opacity:1;isolation:auto;mix-blend-mode:normal;color-interpolation:sRGB;color-interpolation-filters:linearRGB;solid-color:#000000;solid-opacity:1;fill:none;fill-opacity:1;fill-rule:evenodd;stroke:#000000;stroke-width:1px;stroke-linecap:butt;stroke-linejoin:miter;stroke-miterlimit:4;stroke-dasharray:none;stroke-dashoffset:0;stroke-opacity:1;color-rendering:auto;image-rendering:auto;shape-rendering:auto;text-rendering:auto;enable-background:accumulate"
       d="m 303.05296,68.456951 68.35781,34.178909"
       id="path4174-8"
       inkscape:connector-curvature="0" />
    <path
       style="fill:none;fill-rule:evenodd;stroke:#000000;stroke-width:1px;stroke-linecap:butt;stroke-linejoin:miter;stroke-opacity:1"
       d="M 303.05296,67.562521 371.41077,33.383608"
       id="path4174-6-0"
       inkscape:connector-curvature="0" />
    <path
       style="fill:#000000"
       d="m 510.25864,114.75073 c -0.34551,-0.17342 -0.58577,-0.72699 -0.65044,-1.49857 -0.0527,-0.629 -0.0914,-0.70088 -0.74312,-1.37955 -0.73852,-0.76909 -0.82658,-1.04508 -0.52159,-1.63484 0.0913,-0.17648 0.25713,-0.36227 0.3686,-0.41286 0.11147,-0.0506 0.84074,-0.0951 1.6206,-0.0988 l 1.41793,-0.006 1.90722,-0.93401 c 2.62694,-1.28646 2.67708,-1.13742 -0.96813,-2.87808 -1.5418,-0.73625 -2.91982,-1.35248 -3.06227,-1.36943 -0.14246,-0.0169 -0.59794,0.01 -1.0122,0.0595 -1.28492,0.1541 -2.25236,-0.26386 -2.25236,-0.97306 0,-0.44091 0.16056,-0.72774 0.74682,-1.33411 0.44071,-0.45585 0.50538,-0.59278 0.60192,-1.2745 0.12024,-0.84902 0.42663,-1.384264 0.85377,-1.491474 0.562,-0.14105 1.45385,0.41648 1.81904,1.137164 0.46922,0.92596 0.62401,1.05816 2.11246,1.80402 0.80394,0.40285 1.48641,0.73246 1.51662,0.73246 0.0301,0 -0.071,-0.18563 -0.22504,-0.41252 -0.41532,-0.61201 -0.53433,-1.21261 -0.49087,-2.47733 0.039,-1.136124 0.0389,-1.136624 -0.33953,-1.646844 -0.55348,-0.74619 -1.00177,-1.68422 -1.28462,-2.68808 -0.33561,-1.19112 -0.36017,-3.30826 -0.0491,-4.23037 0.67003,-1.98597 2.02078,-3.59024 3.71217,-4.40893 1.77934,-0.86125 4.61464,-1.35618 6.90474,-1.20529 1.82356,0.12014 4.39652,0.82611 5.50073,1.50929 0.24953,0.15437 0.81593,0.65144 1.25868,1.10459 1.36779,1.39992 2.08078,3.18466 2.08516,5.2195 0.004,1.7734 -0.48116,3.23481 -1.4842,4.47246 l -0.50555,0.62379 0.0972,0.62379 c 0.15877,1.018354 0.0287,2.191574 -0.31022,2.797944 -0.16159,0.28911 -0.27212,0.54733 -0.24563,0.57382 0.0264,0.0265 0.67796,-0.27474 1.44773,-0.66939 l 1.39955,-0.71757 0.42036,-0.77369 c 0.44534,-0.81968 0.80862,-1.188434 1.37298,-1.393594 0.74749,-0.27176 1.23604,0.22114 1.44127,1.454084 0.12799,0.76897 0.18017,0.87152 0.74819,1.47035 0.63534,0.66982 0.76191,1.07327 0.49382,1.57419 -0.28588,0.53418 -0.91535,0.65133 -2.89712,0.53917 -0.23777,-0.0135 -1.26545,0.41253 -3.23239,1.33985 -2.78126,1.31122 -2.8838,1.37111 -2.8838,1.68425 0,0.31008 0.0918,0.36742 2.04151,1.27494 l 2.04152,0.95025 1.03329,-0.0743 c 1.26416,-0.0908 1.94725,0.13627 2.19277,0.72902 0.2027,0.48936 0.0152,0.90506 -0.69718,1.54553 -0.52462,0.47168 -0.56682,0.55096 -0.66598,1.25116 -0.18508,1.30691 -0.62571,1.78701 -1.40429,1.53006 -0.43943,-0.14503 -1.09321,-0.80852 -1.39857,-1.41935 -0.3158,-0.63172 -0.42641,-0.71188 -2.39898,-1.73857 l -1.75108,-0.91141 -0.64101,0.59347 c -0.78277,0.72471 -1.59367,1.05421 -3.03046,1.23139 -0.77072,0.095 -1.32749,0.0965 -2.09821,0.006 -1.44077,-0.17012 -2.21901,-0.48562 -3.01444,-1.22204 l -0.65318,-0.60474 -1.83716,0.98296 -1.83716,0.98295 -0.56439,0.86358 c -0.75134,1.14962 -1.38172,1.53261 -2.00645,1.21903 z m 0.78588,-0.77877 c 0.15894,-0.12501 0.49103,-0.54608 0.738,-0.93569 0.24697,-0.38962 0.54488,-0.79128 0.66202,-0.89258 0.11715,-0.1013 0.97856,-0.58176 1.91425,-1.0677 0.93569,-0.48593 1.71375,-0.89189 1.72901,-0.90213 0.0243,-0.0163 -0.43817,-1.40114 -0.50773,-1.52056 -0.0145,-0.0248 -0.7035,0.2906 -1.53115,0.70106 -2.06525,1.02424 -2.82164,1.26788 -3.44723,1.11035 -0.93517,-0.23547 -1.74363,-0.10141 -1.74363,0.28914 0,0.0968 0.30054,0.49051 0.66786,0.87499 0.63655,0.66625 0.67173,0.73361 0.75021,1.43624 0.0836,0.748 0.21475,1.13418 0.3853,1.13418 0.0518,0 0.22417,-0.10228 0.38309,-0.2273 z m 20.94504,0.0639 c 0.0746,-0.0899 0.18868,-0.53643 0.25357,-0.99239 0.11459,-0.80527 0.13783,-0.84935 0.81033,-1.5375 0.66014,-0.67552 0.68308,-0.71773 0.49318,-0.90734 -0.16669,-0.16644 -0.41573,-0.19942 -1.52746,-0.20226 l -1.32831,-0.003 -1.86638,-0.87559 c -1.0265,-0.48158 -1.9069,-0.8756 -1.95644,-0.8756 -0.0495,0 -0.0901,0.0978 -0.0901,0.21743 0,0.11959 -0.0991,0.44861 -0.22022,0.73116 l -0.2202,0.51373 0.70223,0.388 c 0.38623,0.2134 1.23161,0.65789 1.87864,0.98775 1.10647,0.5641 1.20178,0.64083 1.60324,1.29096 0.39909,0.64626 1.08752,1.42842 1.25726,1.42842 0.0413,0 0.13605,-0.0735 0.21063,-0.16338 z m -9.01062,-2.33191 c 1.49456,-0.38225 2.32584,-1.0474 2.9169,-2.33398 0.22155,-0.48227 0.2591,-0.76597 0.27653,-2.08918 0.017,-1.29107 0.0653,-1.67263 0.30829,-2.4336 0.15848,-0.49636 0.27372,-0.9169 0.25609,-0.93453 -0.0177,-0.0176 -0.11289,0.0312 -0.21171,0.10855 -0.26504,0.20742 -0.76107,1.68388 -0.99275,2.95496 -0.22898,1.2563 -0.39634,1.51359 -1.27567,1.96121 -1.16627,0.59366 -3.17491,0.78272 -4.75592,0.44762 -0.87821,-0.18613 -1.33067,-0.39733 -1.98325,-0.92576 -0.43436,-0.35174 -0.47706,-0.43596 -0.55313,-1.09147 -0.14198,-1.22331 -0.8639,-3.37608 -1.13216,-3.37608 -0.107,0 -0.0695,0.22187 0.13898,0.82228 0.24761,0.71304 0.28771,1.0332 0.30193,2.41011 0.0151,1.45545 0.041,1.63985 0.31113,2.21164 0.38723,0.81955 1.07925,1.58386 1.72699,1.90735 1.196,0.5973 3.15202,0.74853 4.66775,0.36088 z m -0.96449,-3.07537 c 0,-0.5398 -0.009,-0.55387 -0.34025,-0.55387 -0.33113,0 -0.34025,0.0147 -0.34025,0.54818 0,0.64201 0.0276,0.68435 0.39963,0.61324 0.25321,-0.0484 0.28087,-0.10824 0.28087,-0.60755 z m -1.8371,-0.0152 c -0.0293,-0.50841 -0.0674,-0.59545 -0.26112,-0.59545 -0.18706,0 -0.23309,0.0875 -0.26254,0.49914 -0.0354,0.49511 0.0781,0.6861 0.41025,0.69 0.10707,8.1e-4 0.13826,-0.16202 0.11341,-0.59369 z m 0.92976,0.0284 c 0,-0.55449 -0.007,-0.56709 -0.34025,-0.56709 -0.33268,0 -0.34025,0.0126 -0.34025,0.56709 0,0.55448 0.007,0.56708 0.34025,0.56708 0.33269,0 0.34025,-0.0126 0.34025,-0.56708 z m 1.67913,-0.0938 c 0.0329,-0.57402 0.0215,-0.6023 -0.22683,-0.56709 -0.2303,0.0326 -0.26553,0.10897 -0.296,0.6412 -0.0329,0.57402 -0.0215,0.6023 0.22684,0.56709 0.2303,-0.0327 0.26553,-0.10896 0.29599,-0.6412 z m 0.92947,-0.19418 c 0,-0.5582 -0.064,-0.63287 -0.42532,-0.49631 -0.21756,0.0822 -0.25518,0.17971 -0.25518,0.66128 l 0,0.56484 0.34025,-0.11861 c 0.30762,-0.10724 0.34025,-0.16585 0.34025,-0.6112 z m -4.30986,0.11416 c 0,-0.42888 -0.0422,-0.53 -0.25518,-0.61047 -0.35347,-0.13359 -0.42532,-0.0613 -0.42532,0.42802 0,0.46342 0.15941,0.69648 0.47636,0.69648 0.16655,0 0.20414,-0.0947 0.20414,-0.51403 z m -1.09191,-0.92828 c -0.32003,-0.234 -0.38251,-0.17546 -0.38251,0.35842 0,0.39379 0.0558,0.5432 0.25519,0.68352 0.25307,0.17807 0.25548,0.1751 0.29077,-0.35842 0.0272,-0.41038 -0.0116,-0.5725 -0.16345,-0.68352 z m 6.17355,0.38014 c 0.0364,-0.55275 -0.0217,-0.61434 -0.34646,-0.36778 -0.14015,0.10638 -0.19849,0.30939 -0.19849,0.69072 0,0.53444 0.002,0.53831 0.25519,0.3714 0.19227,-0.12708 0.26372,-0.29828 0.28976,-0.69434 z m -6.84884,-1.94338 c -0.0675,-0.0624 -0.15777,-0.29064 -0.20069,-0.50726 -0.0707,-0.35686 -0.67656,-1.13729 -0.88288,-1.13729 -0.0464,0 0.0382,0.35046 0.18783,0.77879 0.14966,0.42834 0.35885,1.23219 0.46487,1.78632 0.28373,1.48301 0.42785,1.55853 0.49682,0.26032 0.0367,-0.69066 0.0134,-1.1075 -0.0659,-1.18088 z m 7.48798,1.37608 c 0.0414,-0.33107 0.22173,-1.10757 0.4008,-1.72557 0.17908,-0.618 0.29906,-1.14945 0.26663,-1.18099 -0.12644,-0.12299 -0.71734,0.74007 -0.71734,1.04773 0,0.17959 -0.0746,0.34836 -0.17013,0.38503 -0.13555,0.052 -0.17013,0.29612 -0.17013,1.20121 0,0.95631 0.0249,1.11526 0.15749,1.00522 0.0866,-0.0719 0.19132,-0.40156 0.23268,-0.73263 z m -4.92686,-0.1852 c 0,-0.65026 -0.0126,-0.6805 -0.28354,-0.6805 -0.26764,0 -0.28354,0.0346 -0.28354,0.6159 0,0.54855 0.0279,0.62129 0.25519,0.66506 0.14036,0.027 0.26794,0.0561 0.28354,0.0646 0.0156,0.008 0.0284,-0.29078 0.0284,-0.66506 z m 0.90734,0 c 0,-0.6805 0,-0.6805 -0.34025,-0.6805 -0.33553,0 -0.34025,0.008 -0.34025,0.60489 0,0.68074 0.0414,0.75612 0.41586,0.75612 0.24784,0 0.26464,-0.0432 0.26464,-0.68051 z m 0.88465,-0.0284 0.034,-0.65215 -0.3459,0 c -0.34237,0 -0.34592,0.006 -0.34592,0.60489 0,0.67487 0.0566,0.78059 0.3923,0.73255 0.1976,-0.0283 0.23648,-0.12864 0.26551,-0.68529 z m 0.81661,-0.0284 c 0,-0.58977 -0.0155,-0.6238 -0.28354,-0.6238 -0.26808,0 -0.28354,0.034 -0.28354,0.6238 0,0.58977 0.0155,0.62379 0.28354,0.62379 0.26807,0 0.28354,-0.034 0.28354,-0.62379 z m -3.40252,-0.11342 c 0,-0.61749 -0.003,-0.6238 -0.34024,-0.6238 -0.32531,0 -0.34026,0.0214 -0.34026,0.4877 0,0.52248 0.14883,0.75989 0.47636,0.75989 0.17184,0 0.20414,-0.0987 0.20414,-0.62379 z m 4.17376,0.48769 c 0.0748,-0.0748 0.1361,-0.35556 0.1361,-0.62379 0,-0.46627 -0.0149,-0.4877 -0.34025,-0.4877 -0.33682,0 -0.34025,0.006 -0.34025,0.6238 0,0.52508 0.0323,0.62379 0.20415,0.62379 0.11228,0 0.26539,-0.0613 0.34025,-0.1361 z m -5.01271,-1.18733 c -0.006,-0.0106 -0.15239,-0.0543 -0.3238,-0.0974 -0.30153,-0.0757 -0.31167,-0.0633 -0.31167,0.38131 0,0.34774 0.0621,0.50322 0.25519,0.63909 0.25234,0.17754 0.25595,0.1735 0.3238,-0.36218 0.0377,-0.29795 0.0631,-0.55033 0.0565,-0.56086 z m 5.9209,0.31804 c 0.0348,-0.46688 -0.0242,-0.5313 -0.36585,-0.40019 -0.13059,0.0502 -0.17941,0.2236 -0.17941,0.63763 0,0.5642 0.002,0.56743 0.25519,0.40019 0.18297,-0.12089 0.26506,-0.30133 0.29007,-0.63763 z m -8.89448,-0.49739 c -0.0352,-0.20273 -0.1378,-0.63764 -0.22788,-0.96648 l -0.16377,-0.59787 -2.06599,-1.02453 c -1.13629,-0.56349 -2.23122,-1.13657 -2.43318,-1.27351 -0.20195,-0.13694 -0.51742,-0.53025 -0.70106,-0.87405 -0.34265,-0.64146 -0.70851,-1.04569 -1.05809,-1.16905 -0.2972,-0.10488 -0.52663,0.33622 -0.6128,1.17816 -0.0713,0.69627 -0.10218,0.75597 -0.68091,1.31502 -1.04603,1.01047 -0.75319,1.28941 1.26845,1.20823 l 1.13085,-0.0454 2.6653,1.29761 c 1.46592,0.71369 2.72782,1.30276 2.80424,1.30905 0.0953,0.008 0.11883,-0.10421 0.0748,-0.35717 z m 14.69745,-1.21255 c 2.32706,-1.09734 2.21174,-1.06756 3.94138,-1.0181 0.82418,0.0235 1.16553,-0.0976 1.16553,-0.41372 0,-0.0824 -0.27297,-0.44615 -0.60658,-0.80838 -0.54378,-0.59043 -0.61428,-0.72569 -0.681,-1.3065 -0.0917,-0.79842 -0.27584,-1.2235 -0.53,-1.2235 -0.33248,0 -0.78651,0.45131 -1.12408,1.11734 -0.17859,0.35234 -0.44465,0.75024 -0.59126,0.8842 -0.1466,0.13397 -1.23806,0.72843 -2.42546,1.32102 l -2.1589,1.07744 -0.1945,0.61704 c -0.10699,0.33938 -0.19451,0.77779 -0.19451,0.97425 l 0,0.35721 0.59544,-0.26844 c 0.3275,-0.14764 1.58927,-0.73707 2.80394,-1.30986 z m -6.34823,1.13462 c 0.34895,-0.10203 0.40045,-0.16515 0.42576,-0.52175 0.0701,-0.98679 0.77548,-1.67163 2.38319,-2.31366 0.51566,-0.20592 1.05948,-0.47031 1.2085,-0.58752 0.60103,-0.47278 0.79307,-1.91339 0.44708,-3.353834 -0.28524,-1.18755 -0.25888,-3.20168 0.053,-4.05111 0.26244,-0.71472 0.34064,-2.08221 0.13106,-2.29178 -0.0776,-0.0777 -0.0252,-0.19916 0.16129,-0.3744 l 0.27621,-0.25948 0.19191,0.37111 c 0.25534,0.49378 0.17409,2.03752 -0.16005,3.04075 -0.24723,0.7423 -0.32271,1.97734 -0.1386,2.26801 0.15665,0.24732 0.87811,-0.91961 1.2046,-1.94839 0.51244,-1.61468 0.33594,-3.60249 -0.46424,-5.22861 -0.39097,-0.79452 -1.68906,-2.22432 -2.39504,-2.63806 -1.18161,-0.69247 -4.16144,-1.39933 -5.89898,-1.39933 -1.69393,0 -4.19236,0.49509 -5.59174,1.10804 -2.15762,0.9451 -3.73733,3.44701 -3.74029,5.92383 -0.002,1.31518 0.65394,3.41274 1.34329,4.29832 l 0.21174,0.27202 0.0808,-0.64677 c 0.0913,-0.73105 0.0182,-1.31643 -0.27746,-2.22232 -0.28561,-0.87497 -0.38333,-1.91341 -0.2327,-2.47283 0.15676,-0.58217 0.30614,-0.67998 0.59593,-0.39018 0.19346,0.19345 0.20636,0.26495 0.0878,0.48646 -0.1834,0.34267 -0.074,1.36713 0.24442,2.2892 0.31601,0.915 0.31803,2.40427 0.006,4.05696 -0.17837,0.943234 -0.20316,1.329084 -0.11924,1.855474 0.1942,1.21805 0.40421,1.43927 1.85532,1.95443 1.44392,0.5126 2.32016,1.37568 2.32474,2.28983 0.002,0.41734 0.0681,0.4594 0.93853,0.5984 0.76397,0.122 4.32821,0.039 4.84762,-0.11281 z m -4.12716,-1.5419 c -0.38735,-0.38736 -0.37612,-1.6813 0.0224,-2.58225 0.22366,-0.50561 0.8762,-1.327 1.05423,-1.327 0.0559,0 0.10167,0.73411 0.10167,1.63135 l 0,1.63135 -0.45399,0.41016 c -0.52312,0.4726 -0.49673,0.46399 -0.72433,0.23639 z m 2.08598,-0.23639 -0.454,-0.41016 0,-1.63135 c 0,-0.91094 0.0459,-1.63135 0.10379,-1.63135 0.21415,0 1.0201,1.05316 1.192,1.55763 0.31978,0.93851 0.14534,2.52538 -0.27762,2.52538 -0.0606,0 -0.31447,-0.18457 -0.56417,-0.41015 z m -5.42397,-3.1831 c -0.49648,-0.24465 -0.8285,-0.71069 -1.20855,-1.696374 -0.27634,-0.71669 -0.2968,-0.85624 -0.17823,-1.21552 0.20298,-0.61505 0.66692,-0.93793 1.56053,-1.08603 1.38601,-0.22971 2.27414,-0.30627 2.51579,-0.21689 0.35027,0.12958 0.69169,0.76545 0.69217,1.28916 4e-4,0.57001 -0.61024,1.64838 -1.4215,2.509784 -0.52629,0.55883 -0.61115,0.60641 -1.07746,0.60403 -0.27839,-0.002 -0.67563,-0.0861 -0.88275,-0.18816 z m 8.01525,0.0184 c -0.62356,-0.33872 -1.90733,-2.345854 -1.90999,-2.986204 -0.002,-0.38396 0.32947,-1.02474 0.60588,-1.17267 0.29762,-0.15929 0.97036,-0.13581 2.31919,0.0809 1.14712,0.18433 1.53366,0.37019 1.78643,0.85898 0.24055,0.4652 0.20448,0.81544 -0.17884,1.73622 -0.33378,0.801774 -0.70235,1.267594 -1.20887,1.527814 -0.33998,0.17468 -1.051,0.15203 -1.4138,-0.0451 z"
       id="path4265-8-0"
       inkscape:connector-curvature="0"
       inkscape:export-xdpi="90"
       inkscape:export-ydpi="90" />
  </g>
</svg>
